<mxfile host="app.diagrams.net" modified="2024-03-18T15:42:04.449Z" agent="Mozilla/5.0 (Windows NT 10.0; Win64; x64) AppleWebKit/537.36 (KHTML, like Gecko) Chrome/121.0.0.0 Safari/537.36 Edg/121.0.0.0" etag="25f7Rv9S7DqEUwCtIGU7" version="24.0.7" type="github">
  <diagram name="Page-1" id="4foU-sPMuwIL9KJDtfh4">
    <mxGraphModel dx="1431" dy="824" grid="1" gridSize="10" guides="1" tooltips="1" connect="1" arrows="1" fold="1" page="1" pageScale="1" pageWidth="850" pageHeight="1100" math="0" shadow="0">
      <root>
        <mxCell id="0" />
        <mxCell id="1" parent="0" />
        <mxCell id="Uk1gx759VjxqlsX4QYIc-43" value="" style="html=1;whiteSpace=wrap;fillColor=none;" vertex="1" parent="1">
          <mxGeometry x="289.86" y="185" width="380" height="510" as="geometry" />
        </mxCell>
        <mxCell id="Uk1gx759VjxqlsX4QYIc-20" value="" style="edgeStyle=orthogonalEdgeStyle;rounded=0;orthogonalLoop=1;jettySize=auto;html=1;" edge="1" parent="1" source="Uk1gx759VjxqlsX4QYIc-2" target="Uk1gx759VjxqlsX4QYIc-19">
          <mxGeometry relative="1" as="geometry" />
        </mxCell>
        <mxCell id="Uk1gx759VjxqlsX4QYIc-22" value="" style="edgeStyle=orthogonalEdgeStyle;rounded=0;orthogonalLoop=1;jettySize=auto;html=1;" edge="1" parent="1" source="Uk1gx759VjxqlsX4QYIc-2" target="Uk1gx759VjxqlsX4QYIc-21">
          <mxGeometry relative="1" as="geometry" />
        </mxCell>
        <mxCell id="Uk1gx759VjxqlsX4QYIc-2" value="website" style="ellipse;whiteSpace=wrap;html=1;gradientColor=none;fillColor=default;" vertex="1" parent="1">
          <mxGeometry x="469.86" y="215" width="140" height="70" as="geometry" />
        </mxCell>
        <mxCell id="Uk1gx759VjxqlsX4QYIc-7" style="edgeStyle=orthogonalEdgeStyle;rounded=0;orthogonalLoop=1;jettySize=auto;html=1;" edge="1" parent="1" source="Uk1gx759VjxqlsX4QYIc-4" target="Uk1gx759VjxqlsX4QYIc-2">
          <mxGeometry relative="1" as="geometry" />
        </mxCell>
        <mxCell id="Uk1gx759VjxqlsX4QYIc-4" value="user" style="shape=umlActor;verticalLabelPosition=bottom;verticalAlign=top;html=1;gradientColor=none;fillColor=default;" vertex="1" parent="1">
          <mxGeometry x="719.86" y="220" width="30" height="60" as="geometry" />
        </mxCell>
        <mxCell id="Uk1gx759VjxqlsX4QYIc-19" value="database" style="ellipse;whiteSpace=wrap;html=1;gradientColor=none;fillColor=default;" vertex="1" parent="1">
          <mxGeometry x="469.86" y="365" width="140" height="70" as="geometry" />
        </mxCell>
        <mxCell id="Uk1gx759VjxqlsX4QYIc-33" style="edgeStyle=orthogonalEdgeStyle;rounded=0;orthogonalLoop=1;jettySize=auto;html=1;" edge="1" parent="1" source="Uk1gx759VjxqlsX4QYIc-21" target="Uk1gx759VjxqlsX4QYIc-29">
          <mxGeometry relative="1" as="geometry">
            <Array as="points">
              <mxPoint x="364.86" y="655" />
            </Array>
          </mxGeometry>
        </mxCell>
        <mxCell id="Uk1gx759VjxqlsX4QYIc-21" value="SMS Panel" style="ellipse;whiteSpace=wrap;html=1;gradientColor=none;fillColor=default;" vertex="1" parent="1">
          <mxGeometry x="299.86" y="215" width="140" height="70" as="geometry" />
        </mxCell>
        <mxCell id="Uk1gx759VjxqlsX4QYIc-25" value="" style="edgeStyle=orthogonalEdgeStyle;rounded=0;orthogonalLoop=1;jettySize=auto;html=1;" edge="1" parent="1" source="Uk1gx759VjxqlsX4QYIc-23" target="Uk1gx759VjxqlsX4QYIc-19">
          <mxGeometry relative="1" as="geometry" />
        </mxCell>
        <mxCell id="Uk1gx759VjxqlsX4QYIc-23" value="admin Panel" style="ellipse;whiteSpace=wrap;html=1;gradientColor=none;fillColor=default;" vertex="1" parent="1">
          <mxGeometry x="469.86" y="515" width="140" height="70" as="geometry" />
        </mxCell>
        <mxCell id="Uk1gx759VjxqlsX4QYIc-30" style="edgeStyle=orthogonalEdgeStyle;rounded=0;orthogonalLoop=1;jettySize=auto;html=1;" edge="1" parent="1" source="Uk1gx759VjxqlsX4QYIc-26" target="Uk1gx759VjxqlsX4QYIc-23">
          <mxGeometry relative="1" as="geometry">
            <Array as="points">
              <mxPoint x="479.86" y="885" />
            </Array>
          </mxGeometry>
        </mxCell>
        <mxCell id="Uk1gx759VjxqlsX4QYIc-37" style="edgeStyle=orthogonalEdgeStyle;rounded=0;orthogonalLoop=1;jettySize=auto;html=1;" edge="1" parent="1" source="Uk1gx759VjxqlsX4QYIc-26" target="Uk1gx759VjxqlsX4QYIc-29">
          <mxGeometry relative="1" as="geometry">
            <Array as="points">
              <mxPoint x="109.86" y="875" />
              <mxPoint x="109.86" y="675" />
            </Array>
          </mxGeometry>
        </mxCell>
        <mxCell id="Uk1gx759VjxqlsX4QYIc-26" value="admin" style="shape=umlActor;verticalLabelPosition=bottom;verticalAlign=top;html=1;gradientColor=none;fillColor=default;" vertex="1" parent="1">
          <mxGeometry x="319.86" y="855" width="30" height="60" as="geometry" />
        </mxCell>
        <mxCell id="Uk1gx759VjxqlsX4QYIc-31" style="edgeStyle=orthogonalEdgeStyle;rounded=0;orthogonalLoop=1;jettySize=auto;html=1;" edge="1" parent="1" source="Uk1gx759VjxqlsX4QYIc-28" target="Uk1gx759VjxqlsX4QYIc-23">
          <mxGeometry relative="1" as="geometry" />
        </mxCell>
        <mxCell id="Uk1gx759VjxqlsX4QYIc-34" style="edgeStyle=orthogonalEdgeStyle;rounded=0;orthogonalLoop=1;jettySize=auto;html=1;" edge="1" parent="1" source="Uk1gx759VjxqlsX4QYIc-28" target="Uk1gx759VjxqlsX4QYIc-29">
          <mxGeometry relative="1" as="geometry">
            <Array as="points">
              <mxPoint x="239.86" y="783" />
              <mxPoint x="239.86" y="675" />
            </Array>
          </mxGeometry>
        </mxCell>
        <mxCell id="Uk1gx759VjxqlsX4QYIc-28" value="god" style="shape=umlActor;verticalLabelPosition=bottom;verticalAlign=top;html=1;gradientColor=none;fillColor=default;" vertex="1" parent="1">
          <mxGeometry x="524.86" y="753" width="30" height="60" as="geometry" />
        </mxCell>
        <mxCell id="Uk1gx759VjxqlsX4QYIc-32" style="edgeStyle=orthogonalEdgeStyle;rounded=0;orthogonalLoop=1;jettySize=auto;html=1;" edge="1" parent="1" source="Uk1gx759VjxqlsX4QYIc-29" target="Uk1gx759VjxqlsX4QYIc-23">
          <mxGeometry relative="1" as="geometry">
            <Array as="points">
              <mxPoint x="409.86" y="550" />
              <mxPoint x="409.86" y="550" />
            </Array>
          </mxGeometry>
        </mxCell>
        <mxCell id="Uk1gx759VjxqlsX4QYIc-35" style="edgeStyle=orthogonalEdgeStyle;rounded=0;orthogonalLoop=1;jettySize=auto;html=1;" edge="1" parent="1" source="Uk1gx759VjxqlsX4QYIc-29" target="Uk1gx759VjxqlsX4QYIc-28">
          <mxGeometry relative="1" as="geometry">
            <Array as="points">
              <mxPoint x="249.86" y="665" />
              <mxPoint x="249.86" y="775" />
            </Array>
          </mxGeometry>
        </mxCell>
        <mxCell id="Uk1gx759VjxqlsX4QYIc-38" style="edgeStyle=orthogonalEdgeStyle;rounded=0;orthogonalLoop=1;jettySize=auto;html=1;" edge="1" parent="1" source="Uk1gx759VjxqlsX4QYIc-29" target="Uk1gx759VjxqlsX4QYIc-26">
          <mxGeometry relative="1" as="geometry">
            <Array as="points">
              <mxPoint x="99.86" y="665" />
              <mxPoint x="99.86" y="885" />
            </Array>
          </mxGeometry>
        </mxCell>
        <mxCell id="Uk1gx759VjxqlsX4QYIc-29" value="Super admin" style="shape=umlActor;verticalLabelPosition=bottom;verticalAlign=top;html=1;gradientColor=none;fillColor=default;" vertex="1" parent="1">
          <mxGeometry x="149.86" y="635" width="30" height="60" as="geometry" />
        </mxCell>
      </root>
    </mxGraphModel>
  </diagram>
</mxfile>
